<?xml version="1.0" encoding="utf-8"?>
<!-- Generator: Adobe Illustrator 24.3.0, SVG Export Plug-In . SVG Version: 6.00 Build 0)  -->
<svg version="1.1"
	 id="Layer_1" xmlns:cc="http://creativecommons.org/ns#" xmlns:dc="http://purl.org/dc/elements/1.1/" xmlns:inkscape="http://www.inkscape.org/namespaces/inkscape" xmlns:rdf="http://www.w3.org/1999/02/22-rdf-syntax-ns#" xmlns:sodipodi="http://sodipodi.sourceforge.net/DTD/sodipodi-0.dtd" xmlns:svg="http://www.w3.org/2000/svg"
	 xmlns="http://www.w3.org/2000/svg" xmlns:xlink="http://www.w3.org/1999/xlink" x="0px" y="0px" viewBox="0 0 100 125"
	 style="enable-background:new 0 0 100 125;" xml:space="preserve">
<g transform="translate(0,-952.36218)">
	<path d="M50,976.4c-14.4,0-26,11.6-26,26c0,14.4,11.6,26,26,26s26-11.6,26-26S64.4,976.4,50,976.4L50,976.4z M50,987.4
		c1.1,0,2,0.9,2,2v12.2l7.2,7.2c0.8,0.8,0.8,2,0,2.8c-0.8,0.8-2,0.8-2.8,0c-2.6-2.6-5.2-5.2-7.8-7.8c-0.4-0.4-0.6-0.9-0.6-1.4v-13
		C48,988.3,48.9,987.4,50,987.4z"/>
</g>
</svg>
