<svg xmlns="http://www.w3.org/2000/svg" viewBox="0 0 320.65 229.93"><defs><style>.a{fill:#fff;}.b{fill:#ed202c;}</style></defs><title>csny-whiteRed-logo</title><path class="a" d="M58.43,158.47a26.89,26.89,0,0,1-1.82,9.75,23.82,23.82,0,0,1-5.51,8.38,26.64,26.64,0,0,1-9.25,5.85,35.77,35.77,0,0,1-13.06,2.18,41.09,41.09,0,0,1-7.32-.69A62.46,62.46,0,0,1,14,182.1a60.14,60.14,0,0,1-7.1-2.69A41.67,41.67,0,0,1,.75,176l5.34-17.67a46.13,46.13,0,0,0,11.24,5.91,35,35,0,0,0,12,2.24q5.12,0,7.27-2.12a7,7,0,0,0,2.16-5.22,9,9,0,0,0-.51-3,7.68,7.68,0,0,0-2.16-2.93,23.08,23.08,0,0,0-4.54-3q-2.89-1.54-7.67-3.5a48.73,48.73,0,0,1-9.25-5,27.38,27.38,0,0,1-6.13-5.79,20.6,20.6,0,0,1-3.35-6.6,26,26,0,0,1-1-7.29A22.45,22.45,0,0,1,6,113a22.87,22.87,0,0,1,5.51-7.74,27.09,27.09,0,0,1,9.14-5.45,36.19,36.19,0,0,1,12.77-2.07,40.32,40.32,0,0,1,6.76.57,56.14,56.14,0,0,1,6.41,1.5,50,50,0,0,1,5.68,2.06,26.75,26.75,0,0,1,4.42,2.41l-4.88,17.44a39.11,39.11,0,0,0-4.09-2.46,46.77,46.77,0,0,0-4.7-2.18,40.48,40.48,0,0,0-4.89-1.61,18.8,18.8,0,0,0-4.71-.63c-3.56,0-6.09.69-7.61,2.06a6.25,6.25,0,0,0-2.27,4.71,7.44,7.44,0,0,0,.8,3.55A8,8,0,0,0,27,128a29.23,29.23,0,0,0,4.6,2.52q2.78,1.26,6.64,3a58.13,58.13,0,0,1,9.7,5.21,27.18,27.18,0,0,1,6.25,5.74A19,19,0,0,1,57.46,151a28.36,28.36,0,0,1,1,7.52"/><polygon class="a" points="109.44 118.43 109.44 184.63 90.14 184.63 90.14 118.43 65.16 118.43 65.16 100.53 134.42 100.53 134.42 118.43 109.44 118.43"/><path class="a" d="M181.33,184.63l-6.25-15.26H146.36l-6.25,15.26H120.47l39.17-84.79h2.61l39.17,84.79Zm-20.55-50.37-8.29,20.19H169Z"/><polygon class="a" points="232.4 118.43 232.4 184.63 213.1 184.63 213.1 118.43 188.12 118.43 188.12 100.53 257.38 100.53 257.38 118.43 232.4 118.43"/><polygon class="a" points="267.97 100.53 267.97 184.63 320.64 184.63 320.64 166.85 287.27 166.85 287.27 150.44 317.69 150.44 317.69 133.46 287.27 133.46 287.27 118.43 320.64 118.43 320.64 100.53 267.97 100.53"/><path class="a" d="M72.32,79.14a44.6,44.6,0,0,1-12.55,5.74A51,51,0,0,1,45.53,87,50.52,50.52,0,0,1,27,83.67,43.16,43.16,0,0,1,12.6,74.61,40.18,40.18,0,0,1,3.29,60.84,44.9,44.9,0,0,1,0,43.57,45.21,45.21,0,0,1,3.29,26.19,40.18,40.18,0,0,1,12.6,12.42,43.16,43.16,0,0,1,27,3.36,50.52,50.52,0,0,1,45.53.09a46.93,46.93,0,0,1,13.79,2,57.32,57.32,0,0,1,12.2,5.34L65.62,24a46.25,46.25,0,0,0-9.71-4.13,35.8,35.8,0,0,0-10.16-1.49,30.35,30.35,0,0,0-10.5,1.72,21.33,21.33,0,0,0-7.95,5,22.28,22.28,0,0,0-5,8,29.74,29.74,0,0,0-1.76,10.55,29.35,29.35,0,0,0,1.76,10.5,22.37,22.37,0,0,0,5,7.92,22,22,0,0,0,8,5.05,29.65,29.65,0,0,0,10.5,1.77,37.26,37.26,0,0,0,10.56-1.6,41.07,41.07,0,0,0,10.22-4.59Z"/><rect class="a" x="82.05" y="1.41" width="19.3" height="84.1"/><polygon class="a" points="228.26 1.41 211.23 33.65 194.2 1.41 182.28 1.41 172.06 1.41 113.03 1.41 113.03 19.31 138 19.31 138 85.52 157.31 85.52 157.13 19.31 182.28 19.31 182.28 19.11 201.35 52.13 201.35 85.52 220.65 85.52 220.65 52.24 249.94 1.41 228.26 1.41"/><path class="b" d="M320.65,39.78,301.7,36h0a39.62,39.62,0,0,1-.84,8.37,41.4,41.4,0,0,1-2.17,6.84c-.35.8-.73,1.57-1.13,2.31l-.67-.87L294,48.93l-14.07-18.5c-2.41-3.05-3.44-4.94-3.44-7.14,0-2.56,1.81-4.76,5.55-4.76,5.19,0,11.11,2.2,17.38,5.37l3-18.54C297.13,2.44,289,0,279.27,0c-15.45,0-25.22,7.8-25.22,21.34,0,7.19,1.69,11.58,6.28,17.8C251,45,245,52.07,245,63.78,245,78.41,256.1,87,272.51,87a33.55,33.55,0,0,0,20.16-6.37c.24-.16.48-.32.71-.49l.25.12,0,0,4.6,5.73,22.39-3.37-12.34-15a57.47,57.47,0,0,0,12.34-27.75M267,61.09c0-3.41,1.09-6.22,3.74-9.39l12.91,16c-.37.27-.73.51-1.1.74a13.28,13.28,0,0,1-5.93,1.68,12.42,12.42,0,0,1-4.08-.72l-1.61-.83a6.8,6.8,0,0,0,1,.59,8.32,8.32,0,0,1-5-8"/><path class="a" d="M319.88,229.4l-12.11-14.68,11.5-13.33h-7.68l-9.82,12.19V201.39h-6.49v28h6.49V216.29l10.28,13.11ZM264.7,210.71c0,2.83-2,4.32-5.08,4.32-.77,0-1.23,0-2.07-.11V207.2a13,13,0,0,1,2.53-.19c2.78,0,4.62,1.37,4.62,3.7m8.52,18.69-6.57-10.82a9.38,9.38,0,0,0,4.81-8.1c0-5.12-3.44-9.28-12.15-9.28a70.66,70.66,0,0,0-8.25.46V229.4h6.49v-9.17c.92,0,1.46.07,2.41.07a10.29,10.29,0,0,0,1.11,0l4.78,9.14Zm-52.93-14c0,5-3,8.68-7.41,8.68s-7.41-3.67-7.41-8.68,3-8.67,7.41-8.67,7.41,3.63,7.41,8.67m7,0c0-8.25-5.57-14.48-14.21-14.48s-14.48,6.23-14.48,14.48,5.54,14.44,14.21,14.44,14.48-6.22,14.48-14.44m-47.12-14h-7.3l-5.73,10.74-5.73-10.74h-7.45l9.86,16.89V229.4h6.5V218.32Zm-52.85,0H120L115.5,216l-7.33-14.83h-.69l-7.3,14.94-4.51-14.71H88.22l10.2,28.46.84.08,8.49-16.77,8.59,16.77.88-.08Zm-60.34,28v-5.93H55.7V218H65.94v-5.65H55.7v-5H66.93v-6H49.2v28Zm-42.46.42V201.39H18v14.52L1.32,200.85.44,201V229.4H6.93V214.76l16.89,15.17Z"/></svg>